<svg xmlns="http://www.w3.org/2000/svg" width="1000" height="1000" viewBox="0 0 1000 1000">
  <defs>
    <style>
      .cls-1 {
        fill: #9743ff;
      }

      .cls-1, .cls-2 {
        fill-rule: evenodd;
      }

      .cls-2 {
        fill: #fff;
      }
    </style>
  </defs>
  <path class="cls-1" d="M495.055,14.986c269.46,1.23,486.9,221.918,485.674,492.919S760.061,997.6,490.6,996.369,3.7,774.452,4.926,503.45,225.594,13.756,495.055,14.986Z"/>
  <path id="Rounded_Rectangle_1" data-name="Rounded Rectangle 1" class="cls-2" d="M194.282,437.811H791.708c6.6,0,11.949,2.32,11.949,5.182v15.026c0,2.861-5.35,5.181-11.949,5.181H194.282c-6.6,0-11.949-2.32-11.949-5.181V442.993C182.333,440.131,187.683,437.811,194.282,437.811Z"/>
  <path id="Rounded_Rectangle_1_copy" data-name="Rounded Rectangle 1 copy" class="cls-2" d="M194.282,553.451H791.708c6.6,0,11.949,2.32,11.949,5.181v15.026c0,2.862-5.35,5.182-11.949,5.182H194.282c-6.6,0-11.949-2.32-11.949-5.182V558.632C182.333,555.771,187.683,553.451,194.282,553.451Z"/>
</svg>
