<svg xmlns="http://www.w3.org/2000/svg" width="120" height="52" viewBox="0 0 120 52">
    <defs>
        <style>
            .cls-1{fill:none;stroke:#fff;stroke-miterlimit:10}.cls-2{fill:#fff}
        </style>
    </defs>
    <g id="Google-Partner-Badge" transform="translate(.5 1)">
        <path id="XMLID_2_" d="M0 0h119v51H0z" class="cls-1" transform="translate(0 -.5)"/>
        <path id="XMLID_74_" d="M2.757 20H0V0h7.3A7.045 7.045 0 0 1 12 1.672a5.406 5.406 0 0 1 2 4.247 5.235 5.235 0 0 1-2 4.248 7 7 0 0 1-4.7 1.706H2.757V20zm0-17.558v7.023h4.62a3.739 3.739 0 0 0 2.793-1.1 3.51 3.51 0 0 0 1.038-2.407A3.514 3.514 0 0 0 10.17 3.55a3.694 3.694 0 0 0-2.793-1.1z" class="cls-2" transform="translate(20 23)"/>
        <path id="XMLID_71_" d="M5.464 15a5.914 5.914 0 0 1-3.892-1.308A4.234 4.234 0 0 1 0 10.287a4.1 4.1 0 0 1 1.857-3.613 7.8 7.8 0 0 1 4.572-1.307 7.945 7.945 0 0 1 3.964.86v-.413a3.017 3.017 0 0 0-1.108-2.477 4.087 4.087 0 0 0-2.714-.929 4.354 4.354 0 0 0-2.179.551 2.978 2.978 0 0 0-1.321 1.48L.572 3.407a5.3 5.3 0 0 1 2-2.34A6.6 6.6 0 0 1 6.5 0a6.8 6.8 0 0 1 4.643 1.583A5.628 5.628 0 0 1 13 6.021v8.5h-2.607v-1.96h-.107A5.512 5.512 0 0 1 5.464 15zm1.429-7.431a4.7 4.7 0 0 0-3 .825 2.456 2.456 0 0 0-1 1.961 1.927 1.927 0 0 0 .929 1.651 3.872 3.872 0 0 0 2.107.585A4.528 4.528 0 0 0 9 11.388 3.781 3.781 0 0 0 10.393 8.5a5.53 5.53 0 0 0-3.5-.931z" class="cls-2" transform="translate(34 30)"/>
        <path id="XMLID_68_" d="M16.885 19a4.363 4.363 0 0 1-3.343-1.194 4.646 4.646 0 0 1-1.16-3.406V6.849H9.926V4.39h2.456V0h2.627v4.39h3.411v2.458h-3.411v7.34c0 1.584.614 2.354 1.876 2.354a2.4 2.4 0 0 0 1.194-.247L19 18.614a5.483 5.483 0 0 1-2.115.386zm-14.259-.211H0V4.425h2.525v2.318h.1a3.506 3.506 0 0 1 1.707-1.967 5.219 5.219 0 0 1 2.73-.7c.273 0 .62.036.955.07v2.632l-.094-.009a10.184 10.184 0 0 0-.963-.061 4.481 4.481 0 0 0-3.1 1.124 3.961 3.961 0 0 0-1.229 3.091v7.866z" class="cls-2" transform="translate(50 25)"/>
        <path id="XMLID_26_" d="M2.65.432v1.89h.107A4.972 4.972 0 0 1 4.656.664 5.717 5.717 0 0 1 7.413 0a5.4 5.4 0 0 1 4.155 1.559A5.818 5.818 0 0 1 13 5.706V14h-2.758V6.071c0-2.522-1.218-3.782-3.617-3.782A3.532 3.532 0 0 0 3.831 3.55a4.366 4.366 0 0 0-1.074 2.92v7.5H0V.4l2.65.032z" class="cls-2" transform="translate(71 30)"/>
        <path id="XMLID_64_" d="M7.3 15a7.039 7.039 0 0 1-5.272-2.133A7.444 7.444 0 0 1 0 7.5a7.826 7.826 0 0 1 1.956-5.3A6.482 6.482 0 0 1 6.982 0a6.7 6.7 0 0 1 5.1 2.03A7.726 7.726 0 0 1 14 7.5l-.035.482H2.688a4.789 4.789 0 0 0 1.432 3.372 4.385 4.385 0 0 0 3.107 1.238 3.847 3.847 0 0 0 3.91-2.408l2.373.964a6.228 6.228 0 0 1-2.3 2.752A6.75 6.75 0 0 1 7.3 15zM6.948 2.408a3.9 3.9 0 0 0-2.584.929 4.735 4.735 0 0 0-1.5 2.477h8.275a3.765 3.765 0 0 0-1.118-2.3 4.091 4.091 0 0 0-3.073-1.106z" class="cls-2" transform="translate(86 30)"/>
        <path id="XMLID_23_" d="M2.435 14H0V.334h2.308v2.238H2.4A3.482 3.482 0 0 1 3.921.735 4.3 4.3 0 0 1 8 .334L7.083 2.74a3.45 3.45 0 0 0-1.3-.2 3.125 3.125 0 0 0-2.34 1.1 4.152 4.152 0 0 0-1.008 2.876V14z" class="cls-2" transform="translate(102 30)"/>
        <path id="XMLID_22_" d="M6.735 13A6.663 6.663 0 0 1 0 6.5 6.663 6.663 0 0 1 6.735 0 6.369 6.369 0 0 1 11.3 1.811l-1.269 1.244a4.688 4.688 0 0 0-3.259-1.279 4.724 4.724 0 1 0 0 9.448 4.478 4.478 0 0 0 3.367-1.314 3.6 3.6 0 0 0 .978-2.238H6.772V5.861h6.12A5.629 5.629 0 0 1 13 7.033a5.769 5.769 0 0 1-1.557 4.156A6.45 6.45 0 0 1 6.735 13" class="cls-2" transform="translate(20 6)"/>
        <path id="XMLID_59_" d="M3.983 8A3.935 3.935 0 0 1 0 4a3.935 3.935 0 0 1 3.983-4A3.92 3.92 0 0 1 8 4a3.97 3.97 0 0 1-1.173 2.865A4.026 4.026 0 0 1 3.983 8zm0-6.44A2.3 2.3 0 0 0 1.722 4a2.331 2.331 0 0 0 2.261 2.44A2.347 2.347 0 0 0 6.245 4a2.331 2.331 0 0 0-2.262-2.44z" class="cls-2" transform="translate(33 11)"/>
        <path id="XMLID_56_" d="M3.983 8A3.935 3.935 0 0 1 0 4a3.935 3.935 0 0 1 3.983-4A3.92 3.92 0 0 1 8 4a3.97 3.97 0 0 1-1.173 2.865A4.026 4.026 0 0 1 3.983 8zm0-6.44A2.3 2.3 0 0 0 1.722 4a2.331 2.331 0 0 0 2.261 2.44A2.319 2.319 0 0 0 6.245 4a2.331 2.331 0 0 0-2.262-2.44z" class="cls-2" transform="translate(42 11)"/>
        <path id="XMLID_53_" d="M4.053 12a3.972 3.972 0 0 1-3.7-2.449l1.586-.664a2.321 2.321 0 0 0 2.079 1.469 2.114 2.114 0 0 0 2.22-2.414v-.595h-.07a2.9 2.9 0 0 1-2.185.945 3.955 3.955 0 0 1-2.771-1.186A4.144 4.144 0 0 1 0 4.163 4.131 4.131 0 0 1 3.983 0a2.936 2.936 0 0 1 2.185.91h.07V.28H8V7.7a4.4 4.4 0 0 1-1.167 3.29A3.894 3.894 0 0 1 4.053 12zm.106-10.356a2.4 2.4 0 0 0-2.327 2.519 2.383 2.383 0 0 0 2.327 2.484 2.311 2.311 0 0 0 2.22-2.484 2.331 2.331 0 0 0-2.22-2.519z" class="cls-2" transform="translate(52 11)"/>
        <path id="XMLID_15_" d="M0 0h2v12H0z" class="cls-2" transform="translate(61 7)"/>
        <path id="XMLID_49_" d="M3.774 8a3.651 3.651 0 0 1-2.7-1.161A4.127 4.127 0 0 1 0 4a4.209 4.209 0 0 1 1.065-2.89A3.406 3.406 0 0 1 3.581 0a3.089 3.089 0 0 1 2.246.941 4.575 4.575 0 0 1 1.012 1.6L7 2.984l-5.1 2.2a1.93 1.93 0 0 0 1.839 1.22 2.18 2.18 0 0 0 1.9-1.085l1.291.915A3.777 3.777 0 0 1 3.774 8zm-.129-6.474a2 2 0 0 0-1.361.619 2.31 2.31 0 0 0-.639 1.72l3.419-1.492a1.457 1.457 0 0 0-1.419-.847z" class="cls-2" transform="translate(64 11)"/>
        <g id="Group_287" data-name="Group 287" transform="translate(0 -3)">
            <path id="XMLID_46_" d="M5 3H0V1.439A1.3 1.3 0 0 1 .437.428 1.458 1.458 0 0 1 1.51 0a1.517 1.517 0 0 1 1.074.428 1.419 1.419 0 0 1 .436 1.011v.979H5V3zM1.477.643a.857.857 0 0 0-.6.214.757.757 0 0 0-.277.582v.979h1.749v-.979a.714.714 0 0 0-.268-.582.856.856 0 0 0-.604-.214z" class="cls-2" transform="translate(4 39)"/>
            <path id="XMLID_43_" d="M5 4H0V2.077A1.862 1.862 0 0 1 .43.807 1.3 1.3 0 0 1 1.49.269a1.274 1.274 0 0 1 .927.384 1.742 1.742 0 0 1 .5.962h.032L4.967 0H5v.885L2.98 2.423v.808H5V4zM1.424 1a.746.746 0 0 0-.6.269A1.075 1.075 0 0 0 .563 2v1.23l1.755.039V2.077a1.239 1.239 0 0 0-.265-.77A.8.8 0 0 0 1.424 1z" class="cls-2" transform="translate(4 34)"/>
            <path id="XMLID_8_" d="M.633 0v2.345H2.2V.207h.6v2.138h1.6V0H5v3H0V0z" class="cls-2" transform="translate(4 30)"/>
            <path id="XMLID_7_" d="M5 5H0v-.664l3.033-1.819v-.034L0 .664V0h5v.664H2.033L1.2.629v.035l2.733 1.644v.385L1.2 4.336v.035l.833-.035H5z" class="cls-2" transform="translate(4 24)"/>
            <path id="XMLID_6_" d="M0 0h5v1H0z" class="cls-2" transform="translate(4 22)"/>
            <path id="XMLID_5_" d="M.633 0v2.345H2.2V.241h.6v2.1h1.6V0H5v3H0V0z" class="cls-2" transform="translate(4 18)"/>
            <path id="XMLID_36_" d="M5 4H0V2.057A1.832 1.832 0 0 1 .43.8 1.305 1.305 0 0 1 1.49.266a1.279 1.279 0 0 1 .927.382 1.712 1.712 0 0 1 .5.952h.032L4.967 0H5v.877L2.98 2.4v.8H5V4zM1.424 1.029a.748.748 0 0 0-.6.266 1.059 1.059 0 0 0-.265.724v1.219l1.755.038V2.1a1.222 1.222 0 0 0-.265-.762.8.8 0 0 0-.625-.309z" class="cls-2" transform="translate(4 13)"/>
        </g>
        <path id="Rectangle-path" d="M0 0h.5v51H0z" class="cls-2" transform="translate(14)"/>
    </g>
</svg>
