<svg xmlns="http://www.w3.org/2000/svg" width="61.371" height="52.704" viewBox="0 0 61.371 52.704">
  <g id="Inc-5000" transform="translate(1.188)">
    <path id="Shape" d="M61.281,47.094a7.484,7.484,0,0,1-6.659-3.654A12.661,12.661,0,0,1,53,36.781a13.119,13.119,0,0,1,1.949-7.39,7.463,7.463,0,0,1,2.761-2.517,8.568,8.568,0,0,1,4.06-.974h.162a7.449,7.449,0,0,1,6.578,3.573,12.661,12.661,0,0,1,1.624,6.659,12.856,12.856,0,0,1-1.949,7.309,7.236,7.236,0,0,1-2.68,2.517A8.064,8.064,0,0,1,61.281,47.094Zm.325-17.135a2.313,2.313,0,0,0-2.03,1.3c-.731,1.3-.812,3.979-.812,5.928a21.868,21.868,0,0,0,.244,3.248c.406,1.624,1.3,2.517,2.517,2.517,1.868,0,2.761-2.03,2.842-6.172a26.574,26.574,0,0,0-.325-4.385C63.8,31.5,63.23,29.96,61.606,29.96Z" transform="translate(-9.958 -4.866)" fill="#fff"/>
    <path id="Shape-2" d="M26.2,46.094a8.026,8.026,0,0,1-3.654-.812,7.041,7.041,0,0,1-2.761-2.355,7.6,7.6,0,0,0,1.462-4.548A6.48,6.48,0,0,0,18,32.695a10.507,10.507,0,0,1,.974-3.086h1.218l.244-2.193A8.034,8.034,0,0,1,26.608,24.9h.162a7.412,7.412,0,0,1,6.659,3.573,13.119,13.119,0,0,0-1.949,7.39,12.011,12.011,0,0,0,1.705,6.659,7.463,7.463,0,0,1-2.761,2.517A8.579,8.579,0,0,1,26.2,46.094Zm.325-17.135a2.223,2.223,0,0,0-2.03,1.3c-.812,1.3-.893,3.979-.893,5.928a21.869,21.869,0,0,0,.244,3.248c.406,1.624,1.3,2.517,2.517,2.517,1.949,0,2.842-2.03,2.842-6.172a26.574,26.574,0,0,0-.325-4.385c-.162-.893-.731-2.436-2.355-2.436Z" transform="translate(-3.383 -4.678)" fill="#fff"/>
    <path id="Shape-3" d="M44.065,47.1A8.157,8.157,0,0,1,37,43.441a12.927,12.927,0,0,0,2.03-7.309,12.354,12.354,0,0,0-1.787-6.74,7.942,7.942,0,0,1,2.923-2.517,9.57,9.57,0,0,1,4.3-.974h.162a7.848,7.848,0,0,1,6.984,3.573A12.766,12.766,0,0,0,49.668,36.7a11.575,11.575,0,0,0,1.705,6.578,7.745,7.745,0,0,1-2.923,2.68A8.233,8.233,0,0,1,44.065,47.1ZM44.39,29.96a2.341,2.341,0,0,0-2.111,1.3c-.812,1.3-.893,3.979-.893,5.928a21.869,21.869,0,0,0,.244,3.248c.406,1.624,1.381,2.517,2.6,2.517,2.03,0,3-2.03,3-6.172a20.048,20.048,0,0,0-.406-4.385C46.5,30.854,45.608,29.96,44.39,29.96Z" transform="translate(-6.953 -4.867)" fill="#fff"/>
    <path id="Shape-4" d="M54.541,43.993A11.827,11.827,0,0,1,53,37.821,12.735,12.735,0,0,1,54.7,31a12.966,12.966,0,0,1,1.543,6.253,13.019,13.019,0,0,1-1.705,6.74" transform="translate(-9.958 -5.826)" fill="#fff"/>
    <path id="Shape-5" d="M36.191,29A12.964,12.964,0,0,0,34,36.715a12.118,12.118,0,0,0,1.868,6.9,13.481,13.481,0,0,0,2.193-7.634A12.555,12.555,0,0,0,36.191,29" transform="translate(-6.388 -5.45)" fill="#fff"/>
    <path id="Shape-6" d="M14.374,33.471a9.044,9.044,0,0,0-4.385-1.137A8.834,8.834,0,0,0,6.74,32.9c-.244.081-.406.244-.65.325L6.415,30.3h8.933a10.318,10.318,0,0,1,1.462-2.193L17.054,26H2.193L1.056,37.207l4.954.65a2.406,2.406,0,0,1,2.436-1.3c2.111,0,3.086,1.381,3.086,3.248,0,1.624-.812,3.248-3,3.248a2.468,2.468,0,0,1-2.517-1.705,8.995,8.995,0,0,1-.162-1.543L0,40.374a8.71,8.71,0,0,0,1.868,4.385c2.274,2.355,5.6,2.355,6.74,2.355,1.705,0,4.791-.162,6.984-2.436a4.463,4.463,0,0,0,.568-.731,11.774,11.774,0,0,1-2.03-7.309,13.891,13.891,0,0,1,.244-3.167" transform="translate(0 -4.886)" fill="#fff"/>
    <path id="Shape-7" d="M20.381,30.436,20.624,28A9.815,9.815,0,0,0,19,30.436Z" transform="translate(-3.571 -5.262)" fill="#fff"/>
    <path id="Shape-8" d="M17.242,35A24.088,24.088,0,0,0,17,38.411a15.972,15.972,0,0,0,1.868,7.958,9.986,9.986,0,0,0,1.381-5.035,7.384,7.384,0,0,0-3-6.334" transform="translate(-3.193 -6.577)" fill="#fff"/>
    <path id="Shape-9" d="M6,17.054V13.318H8.274V3.979H6V0H18.181V3.979H15.907v9.339h2.274v3.736Z" transform="translate(-1.128)" fill="#fff"/>
    <path id="Shape-10" d="M32.313,18.805v-3.9H34.1V10.766a1.622,1.622,0,0,0-1.624-1.787h-.325a2.427,2.427,0,0,0-2.436,2.355v3.492H31.5v3.979H22v-3.9h1.705V8.9H22V5h7.471V7.68a.811.811,0,0,0,.325-.406A5.762,5.762,0,0,1,34.75,5.162c2.842,0,5.2,1.218,5.2,4.548v5.2H41.49v3.9Z" transform="translate(-4.134 -0.94)" fill="#fff"/>
    <path id="Shape-11" d="M60.348,10.6l-5.035.568c-.081-1.381-.325-2.923-2.03-2.923-2.193,0-2.355,1.868-2.355,3.654h0c0,1.787.162,3.654,2.355,3.654a1.992,1.992,0,0,0,2.111-1.868v-.244H60.43l-.081.487C59.536,18.154,55.882,18.8,53.2,18.8c-4.142,0-8.2-2.111-8.2-6.9h0C45,7.11,49.06,5,53.2,5c0,0,6.578-.406,7.146,5.6" transform="translate(-8.456 -0.938)" fill="#fff"/>
    <path id="Shape-12" d="M68.06,18.03A2.03,2.03,0,1,1,66.03,16a2.01,2.01,0,0,1,2.03,2.03" transform="translate(-12.027 -3.007)" fill="#fff"/>
    <g id="Group_1167" data-name="Group 1167" transform="translate(-1.188 44.827)">
      <path id="Path_2720" data-name="Path 2720" d="M6.847,62.934H1.162v-1.3a36.068,36.068,0,0,0,3.248-2.6,2.245,2.245,0,0,0,.812-1.462.792.792,0,0,0-.325-.731,1.9,1.9,0,0,0-.974-.162,2.768,2.768,0,0,0-2.03.893L1,56.518a2.886,2.886,0,0,1,1.3-.893A5.251,5.251,0,0,1,3.923,55.3a3.62,3.62,0,0,1,2.111.65,2.091,2.091,0,0,1,.812,1.787,2.664,2.664,0,0,1-.731,1.787,16.953,16.953,0,0,1-2.355,2.03H6.847Z" transform="translate(-1 -55.219)" fill="#fff"/>
      <path id="Path_2721" data-name="Path 2721" d="M14.254,62.528a2.625,2.625,0,0,1-1.787.568,2.625,2.625,0,0,1-1.787-.568,3.759,3.759,0,0,1-1.056-1.462,5.532,5.532,0,0,1,0-3.736,3.759,3.759,0,0,1,1.056-1.462,2.625,2.625,0,0,1,1.787-.568,2.625,2.625,0,0,1,1.787.568,3.759,3.759,0,0,1,1.056,1.462,5.532,5.532,0,0,1,0,3.736A3.089,3.089,0,0,1,14.254,62.528Zm-2.842-1.543a1.153,1.153,0,0,0,1.137.65,1.3,1.3,0,0,0,1.137-.65A3.908,3.908,0,0,0,14.01,59.2a3.7,3.7,0,0,0-.325-1.787,1.375,1.375,0,0,0-1.137-.731,1.3,1.3,0,0,0-1.137.65,3.7,3.7,0,0,0-.325,1.787A4.279,4.279,0,0,0,11.411,60.985Z" transform="translate(-2.56 -55.219)" fill="#fff"/>
      <path id="Path_2722" data-name="Path 2722" d="M21.517,62.952H19.893V57.511l-1.3,1.3-.893-.974L20.055,55.4h1.381v7.552Z" transform="translate(-4.138 -55.238)" fill="#fff"/>
      <path id="Path_2723" data-name="Path 2723" d="M26.523,62.934H24.737l2.68-6.172H23.6V55.3h5.685v1.137Z" transform="translate(-5.247 -55.219)" fill="#fff"/>
      <path id="Path_2724" data-name="Path 2724" d="M37.68,61.818H35V60.6h2.761v1.218Z" transform="translate(-7.389 -56.215)" fill="#fff"/>
      <path id="Path_2725" data-name="Path 2725" d="M48.666,62.915H42.981v-1.3a36.069,36.069,0,0,0,3.248-2.6,2.245,2.245,0,0,0,.812-1.462.792.792,0,0,0-.325-.731,1.637,1.637,0,0,0-.893-.244,2.768,2.768,0,0,0-2.03.893L42.9,56.418a2.886,2.886,0,0,1,1.3-.893,3.94,3.94,0,0,1,3.736.325,2.091,2.091,0,0,1,.812,1.787,2.664,2.664,0,0,1-.731,1.787,11.874,11.874,0,0,1-2.274,2.03h2.923Z" transform="translate(-8.874 -55.2)" fill="#fff"/>
      <path id="Path_2769" data-name="Path 2769" d="M48.666,62.915H42.981v-1.3a36.069,36.069,0,0,0,3.248-2.6,2.245,2.245,0,0,0,.812-1.462.792.792,0,0,0-.325-.731,1.637,1.637,0,0,0-.893-.244,2.768,2.768,0,0,0-2.03.893L42.9,56.418a2.886,2.886,0,0,1,1.3-.893,3.94,3.94,0,0,1,3.736.325,2.091,2.091,0,0,1,.812,1.787,2.664,2.664,0,0,1-.731,1.787,11.874,11.874,0,0,1-2.274,2.03h2.923Z" transform="translate(5.126 -55.2)" fill="#fff"/>
      <path id="Path_2726" data-name="Path 2726" d="M56.154,62.528a3.092,3.092,0,0,1-3.573,0,3.759,3.759,0,0,1-1.056-1.462,5.532,5.532,0,0,1,0-3.736,3.759,3.759,0,0,1,1.056-1.462,3.092,3.092,0,0,1,3.573,0,3.759,3.759,0,0,1,1.056,1.462,5.532,5.532,0,0,1,0,3.736A3.759,3.759,0,0,1,56.154,62.528ZM53.23,60.985a1.153,1.153,0,0,0,1.137.65,1.3,1.3,0,0,0,1.137-.65,3.908,3.908,0,0,0,.325-1.787,3.7,3.7,0,0,0-.325-1.787,1.375,1.375,0,0,0-1.137-.731,1.3,1.3,0,0,0-1.137.65,3.908,3.908,0,0,0-.325,1.787A4.279,4.279,0,0,0,53.23,60.985Z" transform="translate(-10.434 -55.219)" fill="#fff"/>
      <path id="Path_2768" data-name="Path 2768" d="M56.154,62.528a3.092,3.092,0,0,1-3.573,0,3.759,3.759,0,0,1-1.056-1.462,5.532,5.532,0,0,1,0-3.736,3.759,3.759,0,0,1,1.056-1.462,3.092,3.092,0,0,1,3.573,0,3.759,3.759,0,0,1,1.056,1.462,5.532,5.532,0,0,1,0,3.736A3.759,3.759,0,0,1,56.154,62.528ZM53.23,60.985a1.153,1.153,0,0,0,1.137.65,1.3,1.3,0,0,0,1.137-.65,3.908,3.908,0,0,0,.325-1.787,3.7,3.7,0,0,0-.325-1.787,1.375,1.375,0,0,0-1.137-.731,1.3,1.3,0,0,0-1.137.65,3.908,3.908,0,0,0-.325,1.787A4.279,4.279,0,0,0,53.23,60.985Z" transform="translate(3.566 -55.219)" fill="#fff"/>
    </g>
  </g>
</svg>
